<mxfile host="app.diagrams.net" modified="2021-08-19T08:28:18.123Z" agent="5.0 (Windows NT 10.0; Win64; x64) AppleWebKit/537.36 (KHTML, like Gecko) Chrome/91.0.4472.106 Safari/537.36" etag="3_ICbdTBpnFX9tAWkX40" version="14.9.8" type="github">
  <diagram id="2lUMS2kSC3XyWGNXkt_k" name="第 1 页">
    <mxGraphModel dx="965" dy="629" grid="1" gridSize="10" guides="1" tooltips="1" connect="1" arrows="1" fold="1" page="1" pageScale="1" pageWidth="827" pageHeight="1169" math="0" shadow="0">
      <root>
        <mxCell id="0" />
        <mxCell id="1" parent="0" />
        <mxCell id="yGHtYVtZNsBKXJgSI9sg-3" value="" style="edgeStyle=orthogonalEdgeStyle;rounded=0;orthogonalLoop=1;jettySize=auto;html=1;" edge="1" parent="1" source="yGHtYVtZNsBKXJgSI9sg-1" target="yGHtYVtZNsBKXJgSI9sg-2">
          <mxGeometry relative="1" as="geometry" />
        </mxCell>
        <mxCell id="yGHtYVtZNsBKXJgSI9sg-1" value="" style="ellipse;whiteSpace=wrap;html=1;aspect=fixed;" vertex="1" parent="1">
          <mxGeometry x="250" y="190" width="80" height="80" as="geometry" />
        </mxCell>
        <mxCell id="yGHtYVtZNsBKXJgSI9sg-2" value="" style="rounded=0;whiteSpace=wrap;html=1;" vertex="1" parent="1">
          <mxGeometry x="230" y="340" width="120" height="60" as="geometry" />
        </mxCell>
      </root>
    </mxGraphModel>
  </diagram>
</mxfile>
